<svg width="24" height="24" fill="none" xmlns="http://www.w3.org/2000/svg"><path fill-rule="evenodd" clip-rule="evenodd" d="M18.707 8.293a1 1 0 010 1.414l-6 6a1 1 0 01-1.414 0l-6-6a1 1 0 011.414-1.414L12 13.586l5.293-5.293a1 1 0 011.414 0z" fill="#1ECA59"/><path fill-rule="evenodd" clip-rule="evenodd" d="M18.707 8.293a1 1 0 010 1.414l-6 6a1 1 0 01-1.414 0l-6-6a1 1 0 011.414-1.414L12 13.586l5.293-5.293a1 1 0 011.414 0z" fill="url(#paint0_radial_1_7899)"/><defs><radialGradient id="paint0_radial_1_7899" cx="0" cy="0" r="1" gradientUnits="userSpaceOnUse" gradientTransform="rotate(-8.936 82.1 52.34) scale(21.0218 5.8536)"><stop stop-color="#4A9DFF"/><stop offset="1" stop-color="#A4CEFF" stop-opacity="0"/></radialGradient></defs></svg>